HIERARCHY
ROOT Hips
{
	OFFSET 50.277100 -18.289515 96.903999
	CHANNELS 6 Xposition Yposition Zposition Xrotation Yrotation Zrotation
	JOINT spine
	{
		OFFSET 0.000000 -0.458069 7.965683
		CHANNELS 3 Xrotation Yrotation Zrotation
		JOINT spine1
		{
			OFFSET 0.000000 -0.000002 10.243103
			CHANNELS 3 Xrotation Yrotation Zrotation
			JOINT spine2
			{
				OFFSET 0.000000 -0.000002 9.814751
				CHANNELS 3 Xrotation Yrotation Zrotation
				JOINT Neck
				{
					OFFSET 0.000000 -1.201384 25.198593
					CHANNELS 3 Xrotation Yrotation Zrotation
					JOINT Head
					{
						OFFSET 0.000000 0.000000 7.613144
						CHANNELS 3 Xrotation Yrotation Zrotation
						End Site
						{
							OFFSET 0.000000 6.077326 18.428101
						}
					}
				}
				JOINT RightShoulder
				{
					OFFSET -4.132698 0.575449 10.599197
					CHANNELS 3 Xrotation Yrotation Zrotation
					JOINT RightArm
					{
						OFFSET 0.000000 -0.000002 13.901794
						CHANNELS 3 Xrotation Yrotation Zrotation
						JOINT RightArmRoll
						{
							OFFSET 0.000000 0.000000 7.017883
							CHANNELS 3 Xrotation Yrotation Zrotation
							JOINT RightForeArm
							{
								OFFSET 0.000000 -0.000004 20.440598
								CHANNELS 3 Xrotation Yrotation Zrotation
								JOINT RightForeArmRoll
								{
									OFFSET 0.000000 -0.000002 7.875168
									CHANNELS 3 Xrotation Yrotation Zrotation
									JOINT RightHand
									{
										OFFSET 0.000000 -0.000002 15.803696
										CHANNELS 3 Xrotation Yrotation Zrotation
										End Site
										{
											OFFSET 0.000000 0.000000 0.100006
										}
									}
								}
							}
						}
					}
				}
				JOINT LeftShoulder
				{
					OFFSET 4.132698 0.575449 10.599197
					CHANNELS 3 Xrotation Yrotation Zrotation
					JOINT LeftArm
					{
						OFFSET 0.000000 -0.000002 13.901794
						CHANNELS 3 Xrotation Yrotation Zrotation
						JOINT LeftArmRoll
						{
							OFFSET 0.000000 0.000000 7.017883
							CHANNELS 3 Xrotation Yrotation Zrotation
							JOINT LeftForeArm
							{
								OFFSET 0.000000 -0.000004 20.440598
								CHANNELS 3 Xrotation Yrotation Zrotation
								JOINT LeftForeArmRoll
								{
									OFFSET 0.000000 -0.000002 7.875153
									CHANNELS 3 Xrotation Yrotation Zrotation
									JOINT LeftHand
									{
										OFFSET 0.000000 -0.000002 15.803696
										CHANNELS 3 Xrotation Yrotation Zrotation
										End Site
										{
											OFFSET 0.000000 0.000000 0.100006
										}
									}
								}
							}
						}
					}
				}
			}
		}
	}
	JOINT RightUpLeg
	{
		OFFSET -7.060478 1.086100 -1.294701
		CHANNELS 3 Xrotation Yrotation Zrotation
		JOINT RightUpLegRoll
		{
			OFFSET 0.000000 -0.000004 18.530800
			CHANNELS 3 Xrotation Yrotation Zrotation
			JOINT RightLeg
			{
				OFFSET 0.000000 0.000004 -22.947601
				CHANNELS 3 Xrotation Yrotation Zrotation
				JOINT RightLegRoll
				{
					OFFSET 0.000000 -0.000004 23.022598
					CHANNELS 3 Xrotation Yrotation Zrotation
					JOINT RightFoot
					{
						OFFSET 0.000000 -0.000002 19.162498
						CHANNELS 3 Xrotation Yrotation Zrotation
						JOINT RightToeBase
						{
							OFFSET 0.000000 -0.000004 16.018799
							CHANNELS 3 Xrotation Yrotation Zrotation
							End Site
							{
								OFFSET 0.006790 0.894207 7.757812
							}
						}
					}
				}
			}
		}
	}
	JOINT LeftUpLeg
	{
		OFFSET 7.060478 1.086100 -1.294701
		CHANNELS 3 Xrotation Yrotation Zrotation
		JOINT LeftUpLegRoll
		{
			OFFSET 0.000000 -0.000004 18.530899
			CHANNELS 3 Xrotation Yrotation Zrotation
			JOINT LeftLeg
			{
				OFFSET 0.000000 -0.000004 22.947495
				CHANNELS 3 Xrotation Yrotation Zrotation
				JOINT LeftLegRoll
				{
					OFFSET 0.000000 -0.000004 23.235504
					CHANNELS 3 Xrotation Yrotation Zrotation
					JOINT LeftFoot
					{
						OFFSET 0.000000 -0.000002 18.949600
						CHANNELS 3 Xrotation Yrotation Zrotation
						JOINT LeftToeBase
						{
							OFFSET 0.000000 -0.000004 16.018799
							CHANNELS 3 Xrotation Yrotation Zrotation
							End Site
							{
								OFFSET -0.030430 0.894205 7.757812
							}
						}
					}
				}
			}
		}
	}
}
MOTION
Frames: 12
Frame Time: 0.041667
50.713001 -14.026509 96.830597 -5.904576 -0.858959 1.784950 -0.372211 -0.053353 -0.244581 3.287806 -0.100651 -0.500473 4.932868 -0.106640 -0.499235 5.846634 4.364557 1.321156 3.931738 -0.696143 0.971029 -11.418095 -68.905154 -13.954887 -63.493165 -102.238752 -100.929856 0.000001 -0.000002 0.000008 93.825496 1.575031 -10.101601 0.000006 0.000010 -3.000002 -5.000013 -7.999890 0.000006 -3.392899 62.588541 4.382733 -42.430371 109.214342 67.373601 -0.000000 -0.000004 0.000008 84.217257 4.600617 3.055787 -0.000003 -0.000006 3.000008 -4.999839 7.999687 -0.000006 6.391581 -172.242918 6.524532 -179.999991 0.000006 -1.309997 174.981742 -1.189418 -0.448439 -0.000004 0.000004 0.080319 69.399496 6.979013 1.881652 25.456928 -7.350311 0.000005 3.974667 173.220182 -3.126958 -0.000005 -0.000005 -1.259041 -6.189315 1.871654 0.236355 -0.000005 0.000001 -0.093507 69.510678 -6.956591 -1.928284 25.456931 7.343814 -0.000009 
50.705200 -14.035712 96.828911 -5.906314 -0.858255 1.776346 -0.370123 -0.054648 -0.245879 3.289855 -0.103125 -0.501629 4.934909 -0.109127 -0.500362 5.854926 4.388607 1.322020 3.902183 -0.702523 0.970342 -11.402758 -68.894424 -13.937236 -63.384265 -101.936052 -100.846678 0.000001 -0.000003 0.000012 93.886879 1.629887 -10.176313 0.000006 0.000008 -3.000001 -5.000016 -7.999886 0.000005 -3.396196 62.595672 4.387247 -42.020075 109.018166 66.938497 -0.000000 -0.000004 0.000009 84.183926 4.604041 3.051002 -0.000003 -0.000004 3.000008 -4.999838 7.999686 -0.000005 6.401479 -172.239093 6.530000 -179.999991 0.000005 -1.309999 174.985335 -1.192419 -0.447617 -0.000004 0.000004 0.080366 69.402044 6.979013 1.881594 25.456928 -7.350311 0.000005 3.989583 173.221315 -3.129798 -0.000005 -0.000005 -1.259030 -6.181896 1.873133 0.236356 -0.000004 0.000002 -0.093507 69.507823 -6.956618 -1.928270 25.456936 7.343815 -0.000009 
50.711597 -14.050815 96.828697 -5.908327 -0.857519 1.767911 -0.367915 -0.055947 -0.247236 3.292057 -0.105565 -0.502841 4.937109 -0.111582 -0.501547 5.862437 4.412366 1.322837 3.872198 -0.708578 0.969571 -11.387482 -68.883988 -13.919677 -63.277147 -101.633468 -100.766443 0.000001 -0.000004 0.000012 93.948064 1.684299 -10.249051 0.000005 0.000012 -3.000001 -5.000015 -7.999887 0.000005 -3.399370 62.602502 4.391603 -41.597966 108.823068 66.493599 0.000000 -0.000005 0.000010 84.148955 4.608578 3.045246 -0.000004 -0.000004 3.000011 -4.999839 7.999683 -0.000009 6.411741 -172.236266 6.535397 -179.999991 0.000005 -1.310995 174.988914 -1.195419 -0.446807 -0.000004 0.000005 0.080418 69.404680 6.979018 1.881627 25.456928 -7.350311 0.000005 4.005026 173.222449 -3.132812 -0.000005 -0.000005 -1.259011 -6.174068 1.874681 0.236359 -0.000004 0.000002 -0.093507 69.504838 -6.956572 -1.928348 25.456933 7.343813 -0.000009 
50.724998 -14.060315 96.829597 -5.910534 -0.856759 1.759587 -0.365638 -0.057247 -0.248635 3.294367 -0.107982 -0.504091 4.939419 -0.114015 -0.502771 5.869413 4.435917 1.323631 3.841917 -0.714405 0.968740 -11.372311 -68.873947 -13.902252 -63.170425 -101.330822 -100.687473 0.000003 -0.000001 0.000010 94.009201 1.738391 -10.321843 0.000004 0.000011 -3.000001 -5.000013 -7.999892 0.000005 -3.402470 62.609230 4.395853 -41.168590 108.627875 66.043114 0.000000 -0.000004 0.000008 84.112858 4.613852 3.039073 -0.000003 -0.000006 3.000011 -4.999839 7.999687 -0.000007 6.422266 -172.233438 6.540833 -179.999991 0.000005 -1.310995 174.992534 -1.197413 -0.445909 -0.000004 0.000005 0.080475 69.407330 6.979024 1.881662 25.456924 -7.350311 0.000004 4.020841 173.222559 -3.135999 -0.000005 -0.000005 -1.258990 -6.165949 1.876271 0.236360 -0.000004 0.000002 -0.093506 69.501669 -6.956585 -1.928349 25.456936 7.343813 -0.000007 
50.713696 -14.055315 96.862190 -5.912850 -0.855984 1.751322 -0.363308 -0.058550 -0.250057 3.296747 -0.110387 -0.505365 4.941800 -0.116434 -0.504017 5.876093 4.459351 1.324394 3.811474 -0.720101 0.967874 -11.357180 -68.864009 -13.884870 -63.062023 -101.028402 -100.607594 0.000001 -0.000001 0.000014 94.070256 1.792097 -10.395688 0.000006 0.000012 -3.000001 -5.000014 -7.999892 0.000003 -3.405531 62.615971 4.400044 -40.727547 108.434021 65.581960 0.000001 -0.000004 0.000008 84.076207 4.619496 3.032442 -0.000004 -0.000002 3.000010 -4.999839 7.999684 -0.000009 6.432952 -172.230638 6.546268 -179.999991 0.000005 -1.312006 174.996099 -1.200413 -0.445099 -0.000004 0.000004 0.080534 69.410186 6.979003 1.881678 25.456931 -7.350311 0.000005 4.036845 173.223692 -3.139178 -0.000005 -0.000005 -1.258971 -6.157660 1.877890 0.236361 -0.000005 0.000001 -0.093507 69.498500 -6.956601 -1.928250 25.456936 7.343816 -0.000009 
50.717800 -14.065712 96.856697 -5.915205 -0.855207 1.743067 -0.360967 -0.059852 -0.251486 3.299137 -0.112788 -0.506642 4.944191 -0.118851 -0.505269 5.882690 4.482756 1.325152 3.780987 -0.725764 0.966993 -11.342035 -68.854078 -13.867492 -62.950008 -100.726056 -100.524668 0.000002 -0.000001 0.000013 94.131516 1.845710 -10.469591 0.000005 0.000008 -2.999998 -5.000013 -7.999894 0.000003 -3.408556 62.622596 4.404205 -40.277243 108.241013 65.111900 -0.000000 -0.000004 0.000008 84.039344 4.625296 3.025840 -0.000003 -0.000002 3.000010 -4.999838 7.999684 -0.000008 6.443674 -172.227810 6.551721 -179.999991 0.000005 -1.312006 174.999719 -1.203400 -0.444286 -0.000004 0.000004 0.080594 69.412945 6.979009 1.881706 25.456928 -7.350311 0.000004 4.052909 173.224826 -3.142373 -0.000005 -0.000006 -1.258950 -6.149341 1.879519 0.236362 -0.000005 0.000001 -0.093507 69.495324 -6.956578 -1.928246 25.456936 7.343815 -0.000009 
50.718102 -14.094410 96.829697 -5.917489 -0.854435 1.734792 -0.358651 -0.061154 -0.252902 3.301497 -0.115195 -0.507909 4.946541 -0.121274 -0.506509 5.889440 4.506228 1.325915 3.750576 -0.731492 0.966122 -11.326932 -68.844134 -13.850141 -62.831894 -100.423855 -100.435787 0.000002 -0.000003 0.000011 94.192817 1.899202 -10.542535 0.000005 0.000010 -3.000000 -5.000014 -7.999893 0.000004 -3.411607 62.629228 4.408397 -39.815918 108.049781 64.630733 0.000001 -0.000005 0.000008 84.002769 4.630897 3.019415 -0.000004 -0.000007 3.000009 -4.999841 7.999682 -0.000008 6.454316 -172.224982 6.557167 -179.999991 0.000004 -1.312006 175.003312 -1.206400 -0.444473 -0.000005 0.000005 0.080654 69.415697 6.979017 1.881734 25.456928 -7.350310 0.000005 4.068870 173.225946 -3.145546 -0.000005 -0.000004 -1.258929 -6.141093 1.881141 0.236362 -0.000005 0.000002 -0.093507 69.492134 -6.956558 -1.928343 25.456935 7.343814 -0.000010 
50.730099 -14.098810 96.841309 -5.919640 -0.853679 1.726429 -0.356389 -0.062455 -0.254288 3.303777 -0.117620 -0.509147 4.948822 -0.123713 -0.507721 5.896575 4.529837 1.326688 3.720376 -0.737382 0.965282 -11.311750 -68.833895 -13.832698 -62.705713 -100.121749 -100.339106 0.000001 -0.000003 0.000012 94.254630 1.952738 -10.615541 0.000005 0.000008 -3.000001 -5.000014 -7.999894 0.000001 -3.414746 62.636059 4.412694 -39.343358 107.860367 64.137580 0.000001 -0.000001 0.000007 83.966992 4.636013 3.013337 -0.000004 -0.000006 3.000011 -4.999840 7.999687 -0.000005 6.464768 -172.222168 6.562593 -179.999991 0.000005 -1.313003 175.006918 -1.208394 -0.443558 -0.000005 0.000005 0.080709 69.418450 6.979030 1.881661 25.456924 -7.350311 0.000005 4.084572 173.227094 -3.148626 -0.000005 -0.000004 -1.258910 -6.133054 1.882720 0.236362 -0.000004 0.000002 -0.093508 69.489054 -6.956540 -1.928331 25.456936 7.343815 -0.000010 
50.730701 -14.133018 96.827202 -5.921569 -0.852948 1.717945 -0.354223 -0.063753 -0.255627 3.305937 -0.120071 -0.510341 4.950982 -0.126178 -0.508888 5.904335 4.553687 1.327480 3.690522 -0.743530 0.964497 -11.296580 -68.823445 -13.815239 -62.567641 -99.819861 -100.230267 0.000000 -0.000003 0.000011 94.316723 2.006356 -10.689632 0.000007 0.000011 -3.000002 -5.000014 -7.999893 0.000006 -3.417964 62.642991 4.417093 -38.861738 107.672174 63.634373 0.000001 -0.000003 0.000008 83.932527 4.640263 3.007961 -0.000004 -0.000005 3.000010 -4.999841 7.999686 -0.000005 6.474930 -172.218343 6.568105 -179.999991 0.000005 -1.313003 175.010497 -1.211394 -0.442748 -0.000005 0.000005 0.080759 69.421086 6.978998 1.881690 25.456926 -7.350311 0.000005 4.099848 173.228214 -3.151587 -0.000005 -0.000004 -1.258890 -6.125345 1.884248 0.236360 -0.000005 0.000001 -0.093507 69.486096 -6.956560 -1.928323 25.456933 7.343813 -0.000009 
50.732601 -14.140016 96.829689 -5.923187 -0.852253 1.709283 -0.352178 -0.065048 -0.256901 3.307918 -0.122558 -0.511473 4.952963 -0.128680 -0.509992 5.912932 4.577859 1.328305 3.661132 -0.750035 0.963792 -11.281266 -68.812407 -13.797606 -62.414474 -99.518185 -100.106087 0.000001 -0.000002 0.000013 94.379390 2.060133 -10.763775 0.000006 0.000009 -2.999998 -5.000014 -7.999893 0.000004 -3.421337 62.650115 4.421697 -38.369431 107.486134 63.118680 0.000001 -0.000004 0.000007 83.899769 4.643400 3.003460 -0.000003 -0.000006 3.000007 -4.999840 7.999685 -0.000005 6.484665 -172.215502 6.573449 -179.999991 0.000005 -1.314000 175.014076 -1.214394 -0.441937 -0.000004 0.000005 0.080802 69.423539 6.979024 1.881642 25.456931 -7.350308 0.000004 4.114564 173.229334 -3.154361 -0.000005 -0.000005 -1.258880 -6.118095 1.885696 0.236360 -0.000005 0.000001 -0.093507 69.483344 -6.956554 -1.928295 25.456936 7.343814 -0.000008 
50.738499 -14.145411 96.824402 -5.924417 -0.851603 1.700412 -0.350295 -0.066339 -0.258092 3.309689 -0.125092 -0.512527 4.954723 -0.131226 -0.511017 5.922616 4.602439 1.329172 3.632327 -0.756993 0.963184 -11.265875 -68.800851 -13.779850 -62.242578 -99.216735 -99.962701 0.000001 -0.000001 0.000012 94.442624 2.114145 -10.840012 0.000006 0.000010 -3.000001 -5.000012 -7.999889 0.000005 -3.424876 62.657526 4.426527 -37.864550 107.303139 62.588001 0.000001 -0.000002 0.000007 83.869300 4.645023 3.000083 -0.000004 -0.000003 3.000011 -4.999839 7.999688 -0.000007 6.493854 -172.212660 6.578749 -179.999991 0.000005 -1.314001 175.017628 -1.217382 -0.441123 -0.000004 0.000005 0.080836 69.425861 6.979016 1.881694 25.456931 -7.350311 0.000005 4.128551 173.230441 -3.156919 -0.000005 -0.000005 -1.258879 -6.111427 1.887052 0.236359 -0.000005 0.000001 -0.093508 69.480810 -6.956559 -1.928352 25.456933 7.343815 -0.000009 
50.737900 -14.162109 96.822502 -5.925177 -0.851009 1.691262 -0.348606 -0.067625 -0.259182 3.311188 -0.127682 -0.513486 4.956224 -0.133828 -0.511946 5.933612 4.627523 1.330082 3.604249 -0.764506 0.962699 -11.250369 -68.788611 -13.761937 -62.047890 -98.915537 -99.795846 0.000001 -0.000002 0.000010 94.506671 2.168554 -10.915348 0.000006 0.000009 -2.999998 -5.000014 -7.999896 0.000007 -3.428617 62.665353 4.431615 -37.349093 107.122529 62.044045 0.000001 -0.000004 0.000008 83.841480 4.644915 2.998013 -0.000004 -0.000003 3.000010 -4.999841 7.999684 -0.000007 6.502423 -172.208822 6.584092 -179.999991 0.000004 -1.314000 175.021166 -1.220382 -0.441310 -0.000004 0.000004 0.080859 69.427978 6.978997 1.881657 25.456933 -7.350312 0.000006 4.141663 173.231547 -3.159203 -0.000005 -0.000006 -1.258890 -6.105459 1.888286 0.236357 -0.000004 0.000002 -0.093507 69.478583 -6.956575 -1.928296 25.456933 7.343816 -0.000009 
